# xmcd
#
# Track frame offsets:
#	150
#	46284
#	65273
#	75807
#	90038
#	99632
#	109613
#	124472
#	132371
#	148167
#	169632
#	182283
#	192995
#	200021
#	217562
#	244573
#	250517
#	276904
#	306200
#	317044
#
# Disc length: 4373 seconds
#
# Revision: 0
# Processed by: cddbd v1.5.2PL0 Copyright (c) Steve Scherf et al.
# Submitted via: EasyCDDAExtractor 16.0.6.1
#
DISCID=06111314
DTITLE=Συλλογικός δίσκος - Κρήτη χρυσή συλλογή 1
DYEAR=2005
DGENRE=Κρητική
TTITLE0=Άνευ ερμηνευτού - Συρτά [Νίκος Γωνιανάκης]
TTITLE1=Άνευ ερμηνευτού - Μαλεβιζιώτικος χορός [Γιώργος Αβυσσινός]
TTITLE2=Άνευ ερμηνευτού - Ερωτόκριτος [Βασίλης Σκουλάς]
TTITLE3=Άνευ ερμηνευτού - Συρτό Ροδανού [Λύρα, Βασίλης Σκουλάς]
TTITLE4=Άνευ ερμηνευτού - Τα σίδερα [Βασίλης Σκουλάς]
TTITLE5=Άνευ ερμηνευτού - Τραγούδι του γάμου [Λύρα, Βασίλης Σκουλάς]
TTITLE6=Άνευ ερμηνευτού - Σιγανός πεντοζάλης [Λύρα, Βασίλης Σκουλάς]
TTITLE7=Άνευ ερμηνευτού - Πεντοζάλης [παραδοσιακό]
TTITLE8=Άνευ ερμηνευτού - Πηδηχτός χορός [Λύρα, Νίκος Γωνιανάκης]
TTITLE9=Άνευ ερμηνευτού - Συρτά [λύρα, Νίκος Γωνιανάκης]
TTITLE10=Άνευ ερμηνευτού - Σώσε με γιατρέ μου [Ψαραντώνης]
TTITLE11=Άνευ ερμηνευτού - Αυτοσχεδιασμοί με λύρα [Ψαραντώνης]
TTITLE12=Άνευ ερμηνευτού - Σούστα [Ψαραντώνης]
TTITLE13=Άνευ ερμηνευτού - Κοντυλιές βιανίτικες [Γιώργος Αβυσσινός]
TTITLE14=Άνευ ερμηνευτού - Συρτά [Ψαραντώνης]
TTITLE15=Άνευ ερμηνευτού - Αντίλαλοι του Ψηλορείτη [λύρα, Ψαραντώνης]
TTITLE16=Ψαραντώνης - Γρήγορος πηδηχτός [λύρα, Ψαραντώνης]
TTITLE17=Άνευ ερμηνευτού - Συρτά [λύρα, Νίκος Γωνιανάκης]
TTITLE18=Βακάκης Δημήτρης - Δε θέλω φως μου, να σκεφτώ [Δ. Βακάκης]
TTITLE19=Σταυριανουδάκης Κυριάκος - Νύχτα πλανεύτρα του μυαλού [Κυρ. Σταυριανο
TTITLE19=υδάκης]
EXTD=
EXTT0=
EXTT1=
EXTT2=
EXTT3=
EXTT4=
EXTT5=
EXTT6=
EXTT7=
EXTT8=
EXTT9=
EXTT10=
EXTT11=
EXTT12=
EXTT13=
EXTT14=
EXTT15=
EXTT16=
EXTT17=
EXTT18=
EXTT19=
PLAYORDER=
